<?xml version="1.0" encoding="iso-8859-1"?>
<!-- Generator: Adobe Illustrator 25.2.3, SVG Export Plug-In . SVG Version: 6.00 Build 0)  -->
<svg version="1.1" baseProfile="basic" id="Layer_10"
	 xmlns="http://www.w3.org/2000/svg" xmlns:xlink="http://www.w3.org/1999/xlink" x="0px" y="0px" viewBox="0 0 64 64"
	 xml:space="preserve">
<linearGradient id="SVGID_1_" gradientUnits="userSpaceOnUse" x1="32" y1="735.083" x2="32" y2="780.676" gradientTransform="matrix(1 0 0 1 0 -726)">
	<stop  offset="0" style="stop-color:#1A6DFF"/>
	<stop  offset="1" style="stop-color:#C822FF"/>
</linearGradient>
<path style="fill:url(#SVGID_1_);" d="M50,55H14c-2.757,0-5-2.243-5-5V14c0-2.757,2.243-5,5-5h36c2.757,0,5,2.243,5,5v36
	C55,52.757,52.757,55,50,55z M14,11c-1.654,0-3,1.346-3,3v36c0,1.654,1.346,3,3,3h36c1.654,0,3-1.346,3-3V14c0-1.654-1.346-3-3-3H14
	z"/>
<linearGradient id="SVGID_2_" gradientUnits="userSpaceOnUse" x1="30.4999" y1="18.0008" x2="30.4999" y2="46">
	<stop  offset="0" style="stop-color:#6DC7FF"/>
	<stop  offset="1" style="stop-color:#E6ABFF"/>
</linearGradient>
<path style="fill:url(#SVGID_2_);" d="M42,34v4v0.021h-0.002C41.986,40.768,39.749,43,37,43h-0.5c-0.987,0-1.933-0.42-2.596-1.152
	c-0.662-0.731-0.985-1.718-0.887-2.705C33.195,37.38,34.787,36,36.643,36H38c1.103,0,2-0.897,2-2v-9.795l-12,2.25V37v4
	c0,2.757-2.243,5-5,5h-0.5c-0.987,0-1.933-0.42-2.596-1.152c-0.662-0.731-0.985-1.718-0.887-2.705C19.195,40.38,20.787,39,22.643,39
	H24c1.103,0,2-0.897,2-2V22.353c0-0.963,0.687-1.79,1.633-1.966l12.591-2.36c0.439-0.083,0.891,0.033,1.234,0.319
	C41.803,18.632,42,19.053,42,19.5V34z"/>
</svg>